<svg width="772" height="800" viewBox="0 0 772 800" fill="none" xmlns="http://www.w3.org/2000/svg">
<rect width="772" height="800" fill="#4299E1"/>
<g clip-path="url(#clip0_201_330)">
<rect x="97" y="76" width="609.637" height="623.791" rx="8.08805" fill="url(#paint0_radial_201_330)"/>
<path d="M363.973 683C476.915 683 568.473 662.405 568.473 637C568.473 611.595 476.915 591 363.973 591C251.03 591 159.473 611.595 159.473 637C159.473 662.405 251.03 683 363.973 683Z" fill="#63B3ED"/>
<path opacity="0.1" d="M363.973 683C476.915 683 568.473 662.405 568.473 637C568.473 611.595 476.915 591 363.973 591C251.03 591 159.473 611.595 159.473 637C159.473 662.405 251.03 683 363.973 683Z" fill="white"/>
<path d="M311.846 124.164H517.701C531.621 124.164 542.928 135.746 542.928 150.06V595.934C542.928 610.248 531.621 621.83 517.701 621.83H311.846C297.925 621.83 286.618 610.248 286.618 595.934V150.06C286.618 135.746 297.925 124.164 311.846 124.164Z" fill="#263238" stroke="#425E85" stroke-width="1.01101"/>
<path d="M531.991 178.418H297.542V567.576H531.991V178.418Z" fill="white" stroke="#63B3ED" stroke-width="1.35211" stroke-miterlimit="10"/>
<path d="M450.354 262.629C470.005 282.789 470.005 315.477 450.354 335.637C430.703 355.798 398.843 355.798 379.192 335.637C359.542 315.477 359.542 282.789 379.192 262.629C398.843 242.468 430.703 242.468 450.354 262.629Z" fill="#63B3ED" stroke="#63B3ED" stroke-width="1.01101"/>
<path d="M348.069 542.599V542.599L348.066 542.599C347.834 542.6 347.604 542.555 347.389 542.464C347.174 542.374 346.977 542.24 346.811 542.071C346.644 541.901 346.512 541.699 346.421 541.475C346.33 541.251 346.283 541.01 346.283 540.767L346.283 540.764C346.282 540.52 346.328 540.278 346.418 540.053C346.508 539.828 346.641 539.625 346.807 539.454C346.973 539.283 347.171 539.149 347.387 539.057C347.602 538.966 347.833 538.921 348.066 538.922V538.922H348.069H481.491C481.723 538.922 481.953 538.969 482.167 539.061C482.382 539.152 482.578 539.287 482.743 539.458C482.909 539.628 483.04 539.831 483.13 540.056C483.219 540.28 483.265 540.521 483.264 540.764V540.767C483.264 541.257 483.074 541.724 482.74 542.067L483.102 542.42L482.74 542.067C482.406 542.409 481.957 542.599 481.491 542.599H348.069Z" fill="#63B3ED" stroke="#63B3ED" stroke-width="1.01101"/>
<path d="M343.712 381.085H485.835C488.477 381.085 490.641 383.285 490.641 386.028V403.217C490.641 405.959 488.477 408.16 485.835 408.16H343.712C341.07 408.16 338.906 405.959 338.906 403.217V386.028C338.906 383.285 341.07 381.085 343.712 381.085Z" fill="#63B3ED" stroke="#63B3ED" stroke-width="1.01101"/>
<path d="M343.712 433.616H485.835C488.477 433.616 490.641 435.816 490.641 438.559V455.748C490.641 458.49 488.477 460.691 485.835 460.691H343.712C341.07 460.691 338.906 458.49 338.906 455.748V438.559C338.906 435.816 341.07 433.616 343.712 433.616Z" fill="#63B3ED" stroke="#63B3ED" stroke-width="1.01101"/>
<path d="M439.82 325.576L439.82 325.576L424.867 316.743L424.618 316.597V316.308V309.012V308.833L424.73 308.694C426.85 306.064 428.385 302.99 429.23 299.687L429.368 299.146L429.893 299.338C430.352 299.505 430.835 299.591 431.322 299.592L439.82 325.576ZM439.82 325.576C441.49 326.562 442.879 327.984 443.845 329.699C444.811 331.415 445.32 333.362 445.319 335.345V335.345M439.82 325.576L445.319 335.345M398.214 299.076L399.501 298.702L400.012 298.553L400.134 299.072C400.965 302.603 402.566 305.894 404.817 308.695L404.929 308.834V309.012V316.308V316.597L404.68 316.743L389.728 325.575L398.214 299.076ZM398.214 299.076C398.135 298.922 398.035 298.721 397.92 298.481C397.632 297.879 397.257 297.034 396.908 296.063C396.2 294.097 395.63 291.704 396.006 289.76C396.094 289.323 396.193 289.047 396.282 288.886C396.323 288.811 396.355 288.773 396.374 288.755C396.388 288.761 396.41 288.772 396.44 288.792C396.537 288.856 396.662 288.977 396.81 289.162L397.725 290.311L397.711 288.842C397.688 286.42 397.086 284.04 395.957 281.911L395.946 281.892L395.934 281.873C395.379 281.016 394.988 279.788 394.772 278.381C394.556 276.982 394.518 275.443 394.643 273.991C394.768 272.536 395.053 271.194 395.468 270.179C395.893 269.14 396.396 268.581 396.872 268.437C399.097 267.906 401.373 267.634 403.657 267.625L403.991 267.624L404.121 267.317C405.107 264.981 406.753 263.006 408.845 261.647C410.937 260.288 413.377 259.606 415.849 259.69L415.858 259.69H415.866C420.439 259.69 423.16 260.908 425.086 262.635C426.681 264.066 427.752 265.852 428.878 267.73C429.138 268.164 429.401 268.603 429.674 269.044C430.967 271.129 432.448 271.931 433.556 272.53C433.737 272.629 433.909 272.722 434.068 272.814C434.63 273.139 434.987 273.427 435.193 273.864C435.403 274.31 435.495 275 435.3 276.211C434.901 278.687 434.404 280.211 434.019 281.104C433.826 281.55 433.661 281.837 433.551 282.007C433.496 282.092 433.455 282.147 433.43 282.178C433.418 282.194 433.41 282.203 433.407 282.207C433.406 282.207 433.406 282.207 433.406 282.207L433.05 282.573L433.426 282.924L433.426 282.924L433.427 282.925L433.427 282.925L433.427 282.925L433.429 282.927C433.432 282.93 433.437 282.935 433.445 282.943C433.461 282.959 433.487 282.986 433.52 283.022C433.585 283.095 433.681 283.207 433.79 283.356C434.01 283.656 434.285 284.104 434.498 284.688C434.92 285.842 435.115 287.561 434.095 289.777L434.054 289.866L434.049 289.965C433.951 292.043 433.611 294.532 433.072 296.488C432.801 297.471 432.488 298.288 432.149 298.849C431.791 299.44 431.501 299.592 431.323 299.592L398.214 299.076ZM445.319 335.345V340.155C436.549 347.036 425.816 350.766 414.774 350.766C403.732 350.766 392.998 347.036 384.228 340.155V335.345C384.23 333.363 384.74 331.416 385.706 329.701C386.671 327.987 388.059 326.564 389.728 325.576L445.319 335.345ZM396.393 288.74C396.392 288.74 396.392 288.741 396.391 288.741C396.392 288.741 396.393 288.74 396.393 288.74ZM396.355 288.749C396.353 288.749 396.352 288.749 396.352 288.748C396.352 288.748 396.353 288.748 396.355 288.749Z" fill="#263238" stroke="#63B3ED" stroke-width="1.01101"/>
<path d="M364.038 440.691C364.161 440.61 364.301 440.565 364.445 440.559C364.537 440.561 364.628 440.582 364.713 440.621C364.801 440.661 364.881 440.72 364.947 440.795L364.952 440.801L364.958 440.807C365.11 440.969 365.195 441.188 365.192 441.418L365.192 441.418L365.192 441.424C365.191 441.57 365.155 441.713 365.087 441.839L362.696 445.769L362.207 446.573L363.147 446.537L367.796 446.361L367.804 446.36L367.811 446.36C367.912 446.353 368.013 446.369 368.107 446.406C368.202 446.444 368.288 446.503 368.36 446.58L368.362 446.582C368.496 446.725 368.572 446.92 368.569 447.125L368.569 447.125L368.569 447.132C368.568 447.342 368.493 447.543 368.361 447.698C368.288 447.769 368.202 447.824 368.11 447.859C368.014 447.897 367.911 447.912 367.809 447.906L367.801 447.905L367.793 447.905L363.117 447.755L362.189 447.726L362.668 448.521L364.999 452.394L365 452.395C365.082 452.531 365.126 452.689 365.125 452.852V452.853C365.125 453.084 365.036 453.302 364.881 453.461C364.727 453.619 364.522 453.706 364.31 453.707C364.186 453.704 364.063 453.665 363.958 453.592C363.851 453.518 363.766 453.413 363.715 453.287L363.705 453.262L363.691 453.237L361.48 449.161L361.034 448.34L360.59 449.162L358.392 453.238L358.384 453.253L358.377 453.268C358.318 453.398 358.225 453.507 358.111 453.583C358.001 453.658 357.875 453.7 357.746 453.706C357.542 453.7 357.346 453.615 357.197 453.464L357.188 453.454L357.179 453.446C357.101 453.375 357.039 453.287 356.996 453.187C356.953 453.089 356.931 452.982 356.932 452.873C356.935 452.718 356.978 452.567 357.057 452.436C357.057 452.436 357.057 452.436 357.058 452.435L359.441 448.524L359.927 447.725L358.993 447.755L354.344 447.905L354.336 447.905L354.328 447.906C354.226 447.912 354.123 447.897 354.027 447.859C353.935 447.824 353.85 447.77 353.778 447.7C353.649 447.545 353.577 447.347 353.577 447.14C353.577 446.93 353.651 446.729 353.783 446.574C353.853 446.5 353.937 446.443 354.029 446.406C354.124 446.369 354.225 446.353 354.325 446.36L354.333 446.36L354.341 446.361L358.923 446.537L359.861 446.573L359.375 445.771L357.018 441.871C356.937 441.737 356.893 441.582 356.892 441.422L356.892 441.422C356.891 441.313 356.913 441.205 356.956 441.105C356.999 441.006 357.062 440.918 357.139 440.847L357.149 440.838L357.158 440.829C357.308 440.676 357.507 440.591 357.713 440.586C357.838 440.588 357.962 440.626 358.069 440.697L358.343 440.281L358.069 440.697C358.178 440.768 358.267 440.872 358.323 440.996L358.331 441.012L358.339 441.027L360.604 445.226L361.05 446.053L361.494 445.225L363.732 441.053L363.738 441.043L363.743 441.032C363.81 440.891 363.913 440.774 364.038 440.691Z" fill="#263238" stroke="#63B3ED" stroke-width="1.01101"/>
<path d="M378.679 453.464L378.67 453.454L378.66 453.446C378.583 453.375 378.521 453.287 378.478 453.187C378.435 453.089 378.413 452.982 378.414 452.873C378.417 452.717 378.46 452.567 378.539 452.436C378.539 452.436 378.539 452.436 378.539 452.435L380.922 448.524L381.409 447.725L380.474 447.755L375.839 447.905L375.839 447.905L375.832 447.905C375.724 447.91 375.616 447.893 375.515 447.854C375.417 447.817 375.326 447.761 375.248 447.687C375.146 447.576 375.077 447.435 375.051 447.281C375.024 447.123 375.044 446.961 375.108 446.816C375.172 446.671 375.277 446.552 375.405 446.471C375.534 446.391 375.681 446.353 375.829 446.36L375.829 446.36L375.836 446.361L380.405 446.537L381.343 446.574L380.857 445.771L378.5 441.871C378.5 441.871 378.5 441.871 378.5 441.871C378.419 441.737 378.375 441.582 378.374 441.423L378.374 441.422C378.373 441.313 378.395 441.205 378.438 441.105C378.481 441.006 378.543 440.918 378.621 440.847L378.63 440.838L378.64 440.829C378.79 440.676 378.989 440.591 379.195 440.586C379.32 440.588 379.444 440.626 379.551 440.697C379.66 440.768 379.749 440.872 379.805 440.996L379.812 441.012L379.821 441.027L382.085 445.226L382.532 446.053L382.976 445.225L385.214 441.053L385.22 441.043L385.225 441.032C385.292 440.891 385.395 440.774 385.52 440.691L385.242 440.271L385.52 440.691C385.643 440.61 385.785 440.564 385.929 440.559C386.021 440.559 386.112 440.58 386.196 440.618C386.283 440.658 386.361 440.717 386.426 440.791L386.435 440.802L386.445 440.812C386.521 440.892 386.583 440.986 386.624 441.091C386.666 441.195 386.687 441.307 386.687 441.419C386.683 441.566 386.643 441.709 386.572 441.834L384.178 445.769L383.692 446.567L384.626 446.537L389.288 446.388L389.297 446.388L389.307 446.387C389.404 446.38 389.502 446.396 389.594 446.433C389.686 446.47 389.769 446.528 389.838 446.604L389.838 446.604L389.843 446.609C389.978 446.753 390.054 446.948 390.051 447.152L390.051 447.152L390.051 447.159C390.05 447.37 389.975 447.572 389.841 447.727C389.77 447.797 389.687 447.852 389.597 447.887C389.503 447.924 389.403 447.939 389.304 447.933L389.296 447.932L389.288 447.932L384.599 447.783L383.671 447.753L384.15 448.548L386.481 452.421L386.481 452.422C386.564 452.558 386.608 452.716 386.607 452.879V452.88C386.607 453.111 386.518 453.329 386.363 453.488C386.209 453.646 386.004 453.733 385.792 453.734C385.667 453.731 385.545 453.692 385.44 453.619C385.333 453.545 385.248 453.44 385.197 453.314L385.186 453.289L385.173 453.264L382.961 449.188L382.516 448.367L382.072 449.189L379.874 453.266L379.869 453.275L379.864 453.284C379.802 453.411 379.709 453.516 379.596 453.59C379.485 453.662 379.359 453.702 379.23 453.706C379.026 453.701 378.828 453.616 378.679 453.464Z" fill="#263238" stroke="#63B3ED" stroke-width="1.01101"/>
<path d="M400.731 453.707L400.73 453.707C400.519 453.706 400.315 453.62 400.161 453.464L400.152 453.454L400.142 453.446C400.065 453.375 400.002 453.287 399.96 453.187C399.917 453.089 399.895 452.982 399.896 452.873C399.899 452.718 399.942 452.567 400.021 452.436C400.021 452.436 400.021 452.436 400.021 452.435L402.404 448.524L402.891 447.725L401.956 447.755L397.321 447.905L397.321 447.905L397.317 447.905C397.17 447.911 397.024 447.872 396.898 447.792L396.628 448.22L396.898 447.792C396.771 447.712 396.668 447.594 396.604 447.451C396.54 447.307 396.52 447.147 396.545 446.991C396.569 446.836 396.638 446.694 396.739 446.581C396.814 446.505 396.902 446.446 396.998 446.408C397.096 446.37 397.201 446.353 397.305 446.36L397.305 446.36L397.318 446.361L401.887 446.537L402.824 446.574L402.339 445.771L399.982 441.871C399.982 441.871 399.982 441.871 399.982 441.871C399.902 441.739 399.858 441.587 399.856 441.43C399.859 441.319 399.884 441.21 399.927 441.109C399.972 441.005 400.036 440.913 400.114 440.836L400.114 440.836L400.121 440.829C400.274 440.674 400.476 440.589 400.684 440.586C400.808 440.59 400.93 440.628 401.036 440.699C401.144 440.77 401.231 440.873 401.287 440.996L401.294 441.012L401.303 441.027L403.567 445.226L404.013 446.053L404.458 445.225L406.696 441.053L406.702 441.043L406.707 441.032C406.774 440.891 406.876 440.774 407.002 440.691L406.724 440.271L407.002 440.691C407.125 440.61 407.267 440.564 407.411 440.559C407.503 440.559 407.594 440.58 407.678 440.618C407.765 440.658 407.843 440.717 407.907 440.791L407.917 440.802L407.927 440.812C408.003 440.892 408.064 440.986 408.106 441.091L408.571 440.906L408.106 441.091C408.148 441.195 408.169 441.307 408.169 441.419C408.165 441.566 408.125 441.709 408.054 441.834L405.66 445.769L405.171 446.573L406.111 446.537L410.773 446.361L410.789 446.36L410.805 446.358C410.903 446.348 411.001 446.36 411.095 446.392C411.188 446.425 411.275 446.478 411.348 446.549C411.422 446.62 411.48 446.707 411.519 446.804C411.558 446.902 411.577 447.008 411.573 447.114L411.572 447.126L411.572 447.137C411.574 447.345 411.503 447.545 411.375 447.7C411.303 447.77 411.218 447.824 411.127 447.859C411.03 447.897 410.928 447.912 410.826 447.906L410.818 447.905L410.809 447.905L406.134 447.755L405.209 447.726L405.684 448.52L408.002 452.393L408.003 452.395C408.085 452.529 408.129 452.686 408.129 452.846C408.126 452.959 408.101 453.069 408.057 453.17C408.013 453.274 407.949 453.366 407.871 453.443L407.86 453.454L407.849 453.465C407.78 453.541 407.697 453.602 407.606 453.643C407.517 453.683 407.422 453.705 407.326 453.707C407.204 453.703 407.086 453.664 406.983 453.592C406.879 453.519 406.796 453.415 406.746 453.291L406.735 453.263L406.721 453.236L404.496 449.16L404.049 448.342L403.607 449.162L401.409 453.238L401.4 453.254L401.393 453.271C401.332 453.404 401.237 453.515 401.12 453.592L401.396 454.015L401.12 453.592C401.002 453.668 400.868 453.707 400.731 453.707Z" fill="#263238" stroke="#63B3ED" stroke-width="1.01101"/>
<path d="M422.224 453.707L422.224 453.707L422.212 453.707C422.002 453.706 421.797 453.62 421.644 453.464L421.644 453.464L421.642 453.462C421.486 453.305 421.394 453.089 421.391 452.86L421.391 452.858C421.389 452.708 421.428 452.562 421.504 452.436C421.504 452.435 421.504 452.435 421.504 452.435L423.887 448.524L424.373 447.725L423.439 447.755L418.803 447.905L418.803 447.905L418.796 447.905C418.689 447.91 418.581 447.893 418.479 447.854C418.385 447.819 418.297 447.764 418.22 447.695C418.094 447.541 418.023 447.345 418.023 447.14C418.023 446.933 418.095 446.736 418.222 446.582C418.299 446.509 418.388 446.453 418.484 446.415C418.585 446.375 418.693 446.357 418.801 446.361C418.801 446.361 418.801 446.361 418.801 446.361L423.383 446.537L424.317 446.573L423.835 445.772L421.491 441.872L421.491 441.871C421.411 441.739 421.367 441.587 421.365 441.43C421.368 441.319 421.393 441.21 421.436 441.109L421.016 440.927L421.436 441.109C421.481 441.005 421.545 440.913 421.623 440.836L421.623 440.836L421.63 440.829C421.783 440.673 421.987 440.588 422.196 440.586C422.323 440.588 422.447 440.625 422.555 440.697C422.664 440.768 422.753 440.872 422.809 440.996L422.816 441.011L422.824 441.026L425.076 445.225L425.521 446.055L425.967 445.225L428.205 441.053L428.211 441.043L428.216 441.032C428.283 440.891 428.385 440.774 428.511 440.691C428.634 440.609 428.776 440.564 428.92 440.559C429.012 440.559 429.103 440.58 429.187 440.618C429.274 440.658 429.352 440.717 429.416 440.791L429.426 440.802L429.436 440.812C429.512 440.892 429.573 440.986 429.615 441.091C429.657 441.195 429.678 441.307 429.678 441.419C429.674 441.566 429.634 441.709 429.563 441.834L427.169 445.769L426.68 446.573L427.62 446.537L432.282 446.361L432.298 446.36L432.314 446.358C432.412 446.348 432.51 446.36 432.604 446.392C432.697 446.425 432.784 446.478 432.857 446.549C432.931 446.62 432.989 446.707 433.028 446.804C433.067 446.902 433.086 447.008 433.082 447.114L433.081 447.126L433.081 447.137C433.083 447.345 433.012 447.545 432.884 447.7C432.811 447.77 432.727 447.824 432.636 447.859C432.539 447.897 432.437 447.912 432.335 447.906L432.327 447.905L432.318 447.905L427.643 447.755L426.718 447.726L427.193 448.52L429.511 452.393L429.512 452.395C429.594 452.531 429.638 452.689 429.638 452.852H429.638L429.638 452.857C429.639 452.966 429.617 453.075 429.574 453.174C429.531 453.273 429.468 453.361 429.391 453.432L429.374 453.448L429.358 453.465C429.289 453.541 429.206 453.602 429.115 453.643C429.026 453.683 428.931 453.705 428.835 453.707C428.713 453.703 428.594 453.664 428.492 453.592C428.388 453.519 428.305 453.415 428.255 453.291L428.244 453.263L428.23 453.236L426.005 449.16L425.558 448.342L425.116 449.162L422.918 453.238L422.909 453.254L422.901 453.271C422.84 453.407 422.742 453.52 422.622 453.596C422.502 453.673 422.364 453.711 422.224 453.707Z" fill="#263238" stroke="#63B3ED" stroke-width="1.01101"/>
<path d="M443.695 453.707L443.694 453.707C443.485 453.706 443.281 453.621 443.127 453.466C443 453.333 442.918 453.159 442.895 452.97C442.872 452.782 442.91 452.592 443.002 452.43L445.369 448.523L445.852 447.725L444.921 447.755L440.285 447.905L440.285 447.905L440.278 447.905C440.17 447.91 440.063 447.893 439.961 447.854C439.867 447.819 439.779 447.764 439.702 447.695C439.576 447.541 439.505 447.345 439.505 447.14C439.505 446.933 439.577 446.736 439.704 446.582C439.781 446.509 439.87 446.453 439.966 446.415C440.067 446.375 440.175 446.357 440.283 446.361C440.283 446.361 440.283 446.361 440.283 446.361L444.865 446.537L445.802 446.573L445.317 445.771L442.959 441.871C442.959 441.871 442.959 441.871 442.959 441.871C442.959 441.871 442.959 441.871 442.959 441.871C442.879 441.739 442.835 441.585 442.834 441.428C442.838 441.2 442.929 440.987 443.084 440.831L443.086 440.829C443.239 440.673 443.442 440.588 443.652 440.586C443.778 440.588 443.902 440.625 444.011 440.697C444.12 440.769 444.208 440.872 444.265 440.996L444.272 441.011L444.28 441.026L446.531 445.225L446.977 446.055L447.422 445.225L449.66 441.053L449.666 441.043L449.671 441.032C449.738 440.891 449.841 440.774 449.966 440.691C450.09 440.609 450.231 440.564 450.376 440.559C450.47 440.559 450.564 440.58 450.651 440.619C450.741 440.66 450.822 440.719 450.888 440.795L450.894 440.801L450.899 440.807C451.051 440.969 451.136 441.188 451.133 441.417C451.13 441.565 451.09 441.708 451.018 441.834L448.624 445.769L448.135 446.573L449.075 446.537L453.737 446.361L453.753 446.36L453.77 446.358C453.867 446.348 453.966 446.36 454.059 446.392C454.153 446.425 454.239 446.478 454.313 446.549C454.386 446.62 454.445 446.707 454.484 446.804C454.523 446.902 454.541 447.008 454.537 447.114L454.537 447.126L454.537 447.137C454.539 447.345 454.467 447.545 454.339 447.7C454.267 447.77 454.183 447.824 454.091 447.859C453.995 447.897 453.892 447.912 453.79 447.906L453.782 447.905L453.774 447.905L449.099 447.755L448.173 447.726L448.649 448.52L450.966 452.393L450.968 452.395C451.05 452.531 451.094 452.689 451.093 452.852H451.093L451.093 452.857C451.094 452.966 451.072 453.075 451.029 453.174C450.986 453.273 450.924 453.361 450.847 453.432L450.829 453.448L450.814 453.465C450.745 453.541 450.662 453.602 450.571 453.643C450.482 453.683 450.386 453.705 450.29 453.707C450.169 453.703 450.05 453.664 449.948 453.592C449.843 453.519 449.76 453.415 449.711 453.291L449.7 453.263L449.685 453.236L447.46 449.16L447.014 448.342L446.572 449.162L444.373 453.238L444.364 453.254L444.357 453.271C444.297 453.404 444.202 453.515 444.084 453.592C443.967 453.668 443.832 453.707 443.695 453.707ZM446.69 444.451L446.531 444.747L446.977 444.986L447.422 444.747L447.264 444.451L449.215 440.814C449.321 440.592 449.485 440.403 449.688 440.269C449.891 440.135 450.126 440.06 450.367 440.053C450.537 440.053 450.705 440.088 450.86 440.159C451.015 440.229 451.154 440.332 451.268 440.461L446.69 444.451ZM449.371 445.514L449.037 445.527L449.056 446.032L449.488 446.295L449.662 446.009L453.718 445.856C453.889 445.838 454.062 445.858 454.226 445.915C454.389 445.972 454.538 446.064 454.664 446.185C454.789 446.306 454.888 446.453 454.953 446.617C455.018 446.78 455.049 446.956 455.042 447.133C455.045 447.468 454.927 447.792 454.711 448.043C454.587 448.17 454.437 448.268 454.273 448.331C454.108 448.394 453.933 448.421 453.758 448.41L449.683 448.28L449.516 448.001L449.083 448.261L449.066 448.766L449.391 448.776L451.4 452.133C451.531 452.349 451.6 452.599 451.599 452.853C451.6 453.033 451.564 453.21 451.493 453.374C451.423 453.538 451.319 453.685 451.188 453.804C451.073 453.932 450.934 454.033 450.779 454.103C450.624 454.174 450.457 454.211 450.288 454.212C450.063 454.208 449.843 454.136 449.657 454.006C449.471 453.876 449.327 453.692 449.241 453.478L449.371 445.514Z" fill="#263238" stroke="#63B3ED" stroke-width="1.01101"/>
<path d="M465.526 453.584C465.418 453.657 465.295 453.699 465.168 453.706C464.965 453.7 464.769 453.615 464.621 453.464L464.612 453.454L464.602 453.446C464.525 453.375 464.462 453.287 464.419 453.188C464.377 453.089 464.355 452.982 464.355 452.873C464.358 452.717 464.402 452.566 464.481 452.436C464.481 452.436 464.481 452.436 464.481 452.435L466.851 448.523L467.334 447.725L466.403 447.755L461.767 447.905L461.756 447.905L461.744 447.906C461.646 447.914 461.547 447.9 461.453 447.866C461.359 447.832 461.272 447.778 461.198 447.707L460.875 448.042L461.198 447.707C461.124 447.635 461.064 447.548 461.024 447.45C460.983 447.353 460.963 447.247 460.965 447.14L460.965 447.14L460.965 447.13C460.964 447.029 460.983 446.928 461.02 446.835C461.058 446.742 461.112 446.658 461.18 446.588L461.18 446.588L461.187 446.58C461.259 446.503 461.345 446.444 461.44 446.406C461.534 446.369 461.635 446.353 461.735 446.36L461.743 446.36L461.751 446.361L466.333 446.537L467.271 446.573L466.785 445.771L464.428 441.871C464.428 441.871 464.428 441.871 464.428 441.871C464.428 441.871 464.428 441.871 464.428 441.871C464.348 441.738 464.304 441.585 464.302 441.428C464.307 441.2 464.398 440.987 464.552 440.831L464.555 440.829C464.707 440.673 464.911 440.588 465.12 440.586C465.247 440.588 465.371 440.625 465.479 440.697C465.588 440.768 465.677 440.872 465.734 440.996L465.74 441.011L465.748 441.026L468 445.225L468.444 446.053L468.89 445.226L471.142 441.055L471.148 441.043L471.153 441.032C471.22 440.892 471.321 440.776 471.445 440.693C471.566 440.612 471.705 440.566 471.847 440.559C471.941 440.56 472.034 440.58 472.12 440.619C472.209 440.66 472.29 440.719 472.357 440.795L472.362 440.801L472.368 440.807C472.52 440.969 472.605 441.188 472.602 441.418L472.602 441.418L472.602 441.424C472.601 441.57 472.565 441.713 472.497 441.839L470.106 445.769L469.617 446.573L470.557 446.537L475.206 446.361L475.214 446.36L475.222 446.36C475.322 446.353 475.423 446.369 475.517 446.406C475.612 446.444 475.698 446.503 475.77 446.58L475.772 446.582C475.906 446.725 475.982 446.921 475.979 447.125L475.979 447.125L475.979 447.132C475.979 447.342 475.903 447.543 475.771 447.698C475.698 447.769 475.613 447.824 475.52 447.859C475.424 447.897 475.321 447.912 475.219 447.906L475.211 447.905L475.203 447.905L470.528 447.755L469.602 447.726L470.078 448.52L472.395 452.393L472.396 452.395C472.478 452.53 472.522 452.688 472.522 452.849C472.518 453.077 472.427 453.292 472.272 453.448L472.272 453.448L472.265 453.455C472.117 453.61 471.92 453.698 471.715 453.706C471.595 453.702 471.478 453.663 471.377 453.592C471.272 453.519 471.189 453.415 471.14 453.291L471.129 453.263L471.114 453.236L468.889 449.16L468.443 448.342L468 449.162L465.802 453.238L465.793 453.254L465.786 453.271C465.728 453.4 465.638 453.507 465.526 453.584Z" fill="#263238" stroke="#63B3ED" stroke-width="1.01101"/>
<g style="mix-blend-mode:multiply">
<path d="M298.048 193.498V179.44H531.485V193.498H298.048Z" fill="#63B3ED"/>
<path d="M298.048 193.498V179.44H531.485V193.498H298.048Z" stroke="#63B3ED" stroke-width="1.01101"/>
</g>
<path d="M440.262 151.174H389.272C388.351 151.174 387.469 150.799 386.818 150.131C386.167 149.464 385.802 148.558 385.802 147.614C385.802 146.67 386.167 145.764 386.818 145.097C387.469 144.429 388.351 144.054 389.272 144.054H440.262C441.182 144.054 442.065 144.429 442.715 145.097C443.366 145.764 443.732 146.67 443.732 147.614C443.732 148.558 443.366 149.464 442.715 150.131C442.065 150.799 441.182 151.174 440.262 151.174Z" fill="#63B3ED" stroke="#63B3ED" stroke-width="1.35211" stroke-linecap="round" stroke-linejoin="round"/>
<path d="M425.911 581.905C427.384 584.171 428.17 586.835 428.168 589.561C428.164 593.21 426.75 596.707 424.238 599.284C421.727 601.86 418.325 603.306 414.78 603.31C412.131 603.312 409.54 602.509 407.335 600.999C405.129 599.49 403.408 597.341 402.39 594.825C401.373 592.308 401.106 589.537 401.623 586.864C402.141 584.191 403.42 581.737 405.295 579.812C407.171 577.888 409.56 576.579 412.158 576.049C414.756 575.52 417.449 575.793 419.897 576.834C422.344 577.876 424.438 579.64 425.911 581.905Z" fill="#63B3ED" stroke="#63B3ED" stroke-width="1.01101"/>
<path d="M421.826 582.333H407.734V596.79H421.826V582.333Z" fill="#63B3ED" stroke="#24344A" stroke-width="1.35211" stroke-linecap="round" stroke-linejoin="round"/>
<path d="M225.486 658.801V650.157L209.987 650.046L209.856 663.118L210.816 663.189C215.093 663.462 232.573 663.866 235.445 662.977C238.639 661.986 225.486 658.801 225.486 658.801Z" fill="#EBF8FF"/>
<path d="M235.808 662.168C235.808 662.309 230.005 662.431 222.857 662.431C215.709 662.431 209.906 662.309 209.906 662.168C209.906 662.026 215.709 661.905 222.857 661.905C230.005 661.905 235.808 662.026 235.808 662.168Z" fill="#263238"/>
<path d="M225.759 660.571C225.628 660.5 225.759 660.045 226.073 659.559C226.386 659.074 226.811 658.872 226.912 658.973C227.013 659.074 226.8 659.458 226.497 659.873C226.194 660.287 225.891 660.641 225.759 660.571Z" fill="#263238"/>
<path d="M226.75 661.137C226.608 661.137 226.679 660.571 226.982 660.035C227.286 659.499 227.69 659.175 227.801 659.256C227.912 659.337 227.73 659.792 227.447 660.267C227.164 660.743 226.881 661.187 226.75 661.137Z" fill="#263238"/>
<path d="M214.577 662.127C214.517 662.127 214.284 661.945 213.95 661.561C213.543 661.067 213.089 660.614 212.596 660.207C212.11 659.819 211.532 659.564 210.917 659.469C210.442 659.408 210.139 659.469 210.109 659.408C210.078 659.347 210.371 659.135 210.927 659.094C211.661 659.079 212.377 659.322 212.95 659.782C213.486 660.219 213.938 660.75 214.284 661.349C214.517 661.794 214.638 662.087 214.577 662.127Z" fill="#263238"/>
<path d="M225.81 658.943C225.88 659.064 225.618 659.367 225.173 659.529C224.728 659.691 224.334 659.63 224.313 659.529C224.293 659.428 224.607 659.216 224.991 659.074C225.375 658.933 225.729 658.822 225.81 658.943Z" fill="#263238"/>
<path d="M225.567 658.104C225.567 658.255 225.163 658.377 224.637 658.387C224.111 658.397 223.697 658.276 223.707 658.134C223.717 657.992 224.131 657.861 224.637 657.851C225.142 657.841 225.547 657.962 225.567 658.104Z" fill="#263238"/>
<path d="M263.652 658.801V650.157L248.153 650.046L248.021 662.987L248.982 663.058C253.258 663.331 270.749 663.866 273.61 662.977C276.805 661.986 263.652 658.801 263.652 658.801Z" fill="#EBF8FF"/>
<path d="M273.974 662.188C273.974 662.33 268.181 662.451 261.023 662.451C253.865 662.451 248.082 662.33 248.082 662.188C248.082 662.047 253.875 661.925 261.023 661.925C268.171 661.925 273.974 662.047 273.974 662.188Z" fill="#263238"/>
<path d="M263.924 660.571C263.803 660.5 263.924 660.045 264.238 659.559C264.551 659.074 264.976 658.872 265.077 658.973C265.178 659.074 264.966 659.458 264.662 659.873C264.359 660.287 264.056 660.641 263.924 660.571Z" fill="#263238"/>
<path d="M264.915 661.137C264.784 661.137 264.845 660.571 265.158 660.035C265.471 659.499 265.866 659.175 265.977 659.256C266.088 659.337 265.896 659.792 265.613 660.267C265.33 660.743 265.057 661.187 264.915 661.137Z" fill="#263238"/>
<path d="M252.743 662.127C252.682 662.127 252.46 661.945 252.116 661.561C251.709 661.067 251.255 660.614 250.761 660.207C250.276 659.819 249.697 659.564 249.083 659.469C248.618 659.408 248.304 659.469 248.274 659.408C248.244 659.347 248.537 659.135 249.093 659.094C249.827 659.079 250.543 659.322 251.115 659.782C251.654 660.216 252.107 660.748 252.45 661.349C252.682 661.794 252.803 662.087 252.743 662.127Z" fill="#263238"/>
<path d="M263.975 658.943C264.046 659.064 263.783 659.367 263.338 659.529C262.893 659.691 262.499 659.63 262.479 659.529C262.459 659.428 262.772 659.216 263.156 659.074C263.541 658.933 263.894 658.822 263.975 658.943Z" fill="#263238"/>
<path d="M263.753 658.104C263.753 658.255 263.348 658.377 262.823 658.387C262.297 658.397 261.892 658.276 261.903 658.134C261.913 657.992 262.317 657.861 262.823 657.851C263.328 657.841 263.753 657.962 263.753 658.104Z" fill="#263238"/>
<path d="M320.753 402.107C320.349 401.692 319.348 401.894 319.348 401.894C319.448 401.312 319.448 400.717 319.348 400.135C319.166 399.569 317.892 399.68 317.892 399.68C317.833 399.204 317.833 398.721 317.892 398.245C317.902 398.139 317.88 398.033 317.827 397.941C317.775 397.848 317.695 397.774 317.599 397.729C316.996 397.483 316.349 397.366 315.698 397.385C314.92 396.829 318.074 392.411 319.247 390.996C320.42 389.58 320.207 388.478 319.166 388.478C318.448 388.478 314.768 392.725 313.636 394.15C312.503 395.576 309.501 399.539 309.4 396.374C309.299 393.21 308.025 390.824 307.226 390.42C306.427 390.015 305.578 390.965 306.013 391.845C306.395 392.844 306.633 393.893 306.721 394.959C306.83 395.808 306.793 396.67 306.609 397.507C306.274 399.063 305.818 400.591 305.244 402.076H305.164C305.164 402.076 283.103 423.237 281.506 424.743C280.08 426.098 251.408 423.136 245.656 422.529C243.701 422.243 241.727 422.108 239.751 422.125C237.254 422.236 236.809 422.59 234.322 422.62C228.041 422.69 221.775 423.241 215.578 424.268C212.772 424.745 210.151 425.984 208.001 427.848C205.851 429.713 204.254 432.133 203.386 434.843C197.592 452.94 184.47 495.776 182.154 519.838C180.405 523.011 178.826 526.274 177.423 529.615C175.795 534.043 176.189 534.195 176.735 534.296C178.211 534.569 179.89 526.622 180.517 528.543C181.143 530.464 177.332 538.016 178.879 538.239C180.901 538.522 182.508 530.151 182.7 529.483C182.892 528.816 183.893 529.028 183.711 529.655C183.418 530.545 180.577 539.978 182.559 540.281C183.651 540.443 183.772 538.451 183.772 538.451C183.772 538.451 185.794 529.423 186.714 529.605C187.634 529.787 186.653 535.115 186.188 536.894C185.723 538.673 186.37 539.573 187.321 539.139C187.968 538.835 189.515 533.426 189.939 531.667C190.364 529.908 191.425 525.035 192.851 527.856C194.276 530.676 196.44 532.314 197.33 532.355C197.53 532.332 197.719 532.249 197.872 532.118C198.025 531.986 198.136 531.812 198.189 531.617C198.242 531.423 198.236 531.216 198.171 531.025C198.106 530.834 197.986 530.667 197.825 530.545C197.06 529.798 196.403 528.947 195.874 528.017C195.402 527.293 195.06 526.493 194.863 525.652C194.455 523.975 194.218 522.261 194.155 520.536L193.993 519.525C196.258 508.313 202.779 475.405 212.191 454.386L216.053 462.332L217.732 468.216L207.44 493.623L251.338 493.047L244.786 467.832L252.743 441.546C261.347 441.738 283.437 442.062 287.117 440.394C291.748 438.372 315.698 408.122 315.698 408.122C317.259 406.909 318.755 405.613 320.177 404.24C320.177 404.24 321.633 403.017 320.753 402.107Z" fill="#FFBE9D"/>
<path d="M205.509 474.849C206.783 470.501 213.324 449.007 213.324 449.007C213.324 449.007 216.539 466.528 215.689 468.641C214.908 470.45 213.985 472.194 212.929 473.858C205.509 485.151 206.479 490.802 206.479 490.802L251.317 489.437C251.418 483.169 247.708 468.591 246.94 466.265C246.171 463.94 248.729 456.327 248.729 456.327C248.729 456.327 253.784 451.181 253.602 448.532C253.506 446.153 253.212 443.786 252.723 441.455L280.02 442.466L279.16 423.965L239.954 420.042C238.589 423.894 226.244 422.003 226.244 422.003C212.919 422.448 212.09 424.895 206.55 429.202C201.01 433.509 191.84 470.471 191.84 470.471L205.509 474.849Z" fill="#EBF8FF"/>
<path d="M232.017 470.471C231.24 470.61 230.449 470.651 229.662 470.592C228.196 470.592 226.184 470.491 223.97 470.269C221.755 470.046 219.754 469.733 218.328 469.45C217.542 469.349 216.771 469.152 216.033 468.864C216.824 468.864 217.612 468.938 218.389 469.086C219.824 469.268 221.816 469.521 224.02 469.743C226.224 469.966 228.226 470.117 229.672 470.218C230.46 470.228 231.245 470.313 232.017 470.471Z" fill="#263238"/>
<path d="M235.091 466.66C234.313 467.04 233.491 467.322 232.644 467.499C228.61 468.559 224.449 469.052 220.279 468.965C219.417 468.993 218.554 468.911 217.711 468.722C218.563 468.614 219.421 468.571 220.279 468.591C221.867 468.54 224.05 468.429 226.457 468.146C228.863 467.863 231.006 467.458 232.523 467.135C233.365 466.91 234.224 466.751 235.091 466.66Z" fill="#263238"/>
<path d="M250.175 449.654C250.154 450.425 250.049 451.191 249.861 451.939C249.599 453.345 249.194 455.266 248.679 457.368C248.163 459.471 247.668 461.412 247.223 462.727C247.044 463.479 246.779 464.208 246.434 464.9C246.49 464.132 246.633 463.372 246.859 462.636C247.243 461.059 247.678 459.239 248.163 457.247C248.648 455.255 249.113 453.436 249.497 451.858C249.634 451.099 249.862 450.359 250.175 449.654Z" fill="#263238"/>
<path d="M205.984 472.271C203.645 471.909 201.336 471.372 199.078 470.663C196.771 470.124 194.507 469.414 192.305 468.54C194.642 468.907 196.95 469.444 199.21 470.148C201.518 470.685 203.782 471.395 205.984 472.271Z" fill="#263238"/>
<path d="M253.208 441.233C252.826 441.298 252.437 441.298 252.055 441.233C250.999 441.124 249.962 440.876 248.972 440.495C247.318 439.873 245.812 438.913 244.552 437.675C243.291 436.437 242.303 434.949 241.652 433.306C240.932 431.5 240.625 429.555 240.752 427.614C240.797 426.014 241.276 424.455 242.137 423.105C242.743 422.196 243.648 421.527 244.695 421.215C244.975 421.137 245.264 421.1 245.555 421.103C245.757 421.103 245.858 421.103 245.858 421.103C245.858 421.103 245.433 421.103 244.756 421.376C243.795 421.731 242.98 422.397 242.441 423.267C241.066 425.431 240.681 429.384 242.147 433.074C242.83 434.814 243.898 436.376 245.271 437.644C246.397 438.681 247.693 439.515 249.103 440.11C250.426 440.633 251.803 441.01 253.208 441.233Z" fill="#263238"/>
<path d="M276.775 442.102C276.522 439.002 276.441 435.89 276.532 432.781C276.453 429.674 276.547 426.565 276.815 423.469C277.068 426.566 277.149 429.675 277.058 432.781C277.143 435.891 277.048 439.003 276.775 442.102Z" fill="#263238"/>
<path d="M239.691 421.174C239.802 418.92 240.035 416.372 240.035 416.372C240.035 416.372 245.615 415.755 245.949 409.993C246.283 404.23 245.949 390.935 245.949 390.935L235.839 385.759L224.617 394.585L226.346 423.399L236.638 424.056C237.424 424.077 238.187 423.786 238.76 423.246C239.332 422.706 239.667 421.961 239.691 421.174Z" fill="#FFBE9D"/>
<path d="M240.692 405.433C240.692 405.433 240.692 405.544 240.601 405.676C240.525 405.771 240.428 405.847 240.317 405.896C240.206 405.945 240.085 405.967 239.964 405.959C239.317 405.959 238.69 405.211 238.467 404.341C238.362 403.92 238.362 403.479 238.467 403.057C238.488 402.873 238.555 402.697 238.66 402.545C238.766 402.394 238.909 402.271 239.074 402.188C239.21 402.131 239.363 402.131 239.499 402.188C239.599 402.238 239.681 402.319 239.731 402.42C239.802 402.592 239.731 402.703 239.731 402.693C239.731 402.683 239.731 402.592 239.63 402.491C239.577 402.419 239.5 402.368 239.412 402.35C239.324 402.331 239.233 402.345 239.155 402.39C239.031 402.465 238.928 402.57 238.855 402.695C238.783 402.821 238.743 402.963 238.74 403.108C238.655 403.484 238.655 403.874 238.74 404.25C238.943 405.039 239.489 405.676 239.974 405.736C240.069 405.749 240.165 405.742 240.258 405.716C240.35 405.69 240.436 405.645 240.51 405.585C240.631 405.504 240.671 405.423 240.692 405.433Z" fill="#EB996E"/>
<path d="M249.417 387.821C248.638 385.173 245.817 383.858 243.249 383.13C239.337 382.018 235.111 381.533 231.289 382.938C227.468 384.343 222.878 386.81 222.878 391.026C220.623 390.844 219.329 392.816 218.439 395.262C217.87 396.753 217.53 398.321 217.428 399.913C217.145 405.433 215.598 413.056 212.019 417.1C209.997 419.355 207.197 420.912 206.044 423.722C205.033 426.159 205.559 429.05 204.619 431.517C203.78 433.691 201.93 435.238 200.575 437.128C199.195 439.273 198.382 441.733 198.214 444.278C198.046 446.823 198.528 449.369 199.614 451.677C200.708 453.925 202.249 455.927 204.142 457.561C206.034 459.195 208.24 460.426 210.624 461.18C215.347 462.617 220.383 462.666 225.132 461.322C228.697 460.469 232.022 458.82 234.858 456.499C237.76 454.129 239.753 450.829 240.499 447.157C241.217 443.032 240.065 438.837 239.205 434.732C236.516 421.761 237.284 421.083 240.681 409.042C240.762 408.83 240.803 408.608 240.863 408.395C240.924 408.183 240.954 408.082 240.995 407.92C241.091 407.444 241.142 406.96 241.146 406.474C240.65 406.659 240.112 406.698 239.594 406.587C239.077 406.476 238.601 406.219 238.225 405.848C237.847 405.451 237.584 404.96 237.463 404.426C237.342 403.892 237.367 403.335 237.537 402.815C237.776 402.245 238.131 401.732 238.58 401.309C239.03 400.886 239.563 400.562 240.146 400.358C241.268 399.893 242.471 399.65 243.573 399.135C245.908 398.022 247.526 395.717 248.628 393.301C249.534 391.626 249.814 389.684 249.417 387.821Z" fill="#263238"/>
<path d="M241.096 405.706C241.31 406.022 241.486 406.361 241.622 406.717C241.925 407.354 242.329 408.254 242.774 409.295L242.855 409.487H242.643L241.632 409.578C240.934 409.578 240.348 409.71 239.66 409.699C239.601 409.686 239.545 409.658 239.499 409.617C239.453 409.576 239.418 409.525 239.398 409.467C239.367 409.375 239.367 409.276 239.398 409.184C239.421 409.048 239.451 408.913 239.489 408.779L239.671 408.062C239.762 407.583 239.904 407.115 240.095 406.666C240.076 407.155 240.005 407.639 239.883 408.112L239.741 408.83C239.691 409.073 239.6 409.447 239.741 409.416C240.247 409.416 240.965 409.305 241.632 409.265L242.643 409.174L242.511 409.396C242.077 408.385 241.713 407.435 241.5 406.778C241.314 406.442 241.178 406.081 241.096 405.706Z" fill="#EBF8FF"/>
<path d="M206.479 490.802L251.317 489.437L270.83 565.607L267.241 652.978H243.532L246.434 567.467L229.095 514.44L231.764 656.365L207.803 656.718L205.286 523.316C205.175 519.606 203.962 511.245 204.417 507.565L206.479 490.802Z" fill="#263238"/>
<path d="M235.06 515.522C234.326 515.568 233.589 515.524 232.866 515.39C231.511 515.228 229.661 514.945 227.629 514.541C225.597 514.136 223.777 513.671 222.463 513.297C221.76 513.143 221.081 512.898 220.441 512.569C220.441 512.418 223.737 513.206 227.781 514.025C231.825 514.844 235.08 515.37 235.06 515.522Z" fill="#455A64"/>
<path d="M266.998 648.186C266.998 648.327 261.63 648.448 255.007 648.448C248.385 648.448 243.007 648.327 243.007 648.186C243.007 648.044 248.375 647.923 255.007 647.923C261.64 647.923 266.998 648.034 266.998 648.186Z" fill="#455A64"/>
<path d="M231.552 652.675C231.552 652.826 226.335 652.937 219.905 652.937C213.475 652.937 208.269 652.826 208.269 652.675C208.269 652.523 213.485 652.412 219.905 652.412C226.325 652.412 231.552 652.533 231.552 652.675Z" fill="#455A64"/>
<path d="M228.458 652.311C228.316 652.311 227.69 621.303 227.053 583.057C226.416 544.81 226.042 513.782 226.173 513.782C226.305 513.782 226.952 544.78 227.578 583.047C228.205 621.313 228.61 652.311 228.458 652.311Z" fill="#455A64"/>
<path d="M263.813 648.186C263.802 648.048 263.802 647.909 263.813 647.771V646.558C263.813 645.466 263.894 643.899 263.955 641.907C264.097 637.863 264.299 631.99 264.551 624.791C265.097 610.314 265.866 590.356 266.705 568.326C266.705 568.114 266.705 567.912 266.705 567.73V567.801C261.397 546.57 256.595 527.3 253.107 513.358L249.063 496.869C248.598 494.938 248.244 493.431 247.991 492.38C247.87 491.884 247.789 491.5 247.718 491.207C247.679 491.075 247.655 490.94 247.647 490.802C247.7 490.93 247.741 491.062 247.769 491.197C247.85 491.48 247.951 491.864 248.092 492.349C248.365 493.36 248.76 494.897 249.265 496.818C250.276 500.72 251.702 506.342 253.481 513.267C256.999 527.199 261.852 546.418 267.231 567.679V567.75C267.231 567.932 267.231 568.144 267.231 568.347C266.331 590.376 265.512 610.324 264.915 624.801C264.602 632.01 264.339 637.843 264.157 641.907C264.056 643.929 263.975 645.466 263.925 646.558C263.925 647.074 263.864 647.478 263.854 647.771C263.855 647.911 263.842 648.049 263.813 648.186Z" fill="#455A64"/>
<path d="M256.079 565.95C254.376 566.51 252.622 566.9 250.842 567.113C248.658 567.487 246.798 567.75 245.959 567.79V567.588C246.232 567.669 246.374 567.72 246.374 567.76C246.374 567.801 246.202 567.76 245.919 567.76H245.312L245.919 567.578C246.707 567.346 248.567 566.961 250.751 566.567C252.503 566.187 254.287 565.981 256.079 565.95Z" fill="#455A64"/>
<path d="M255.664 568.852C254.087 568.924 252.507 568.853 250.943 568.64C249.364 568.607 247.79 568.435 246.242 568.124C249.401 567.866 252.582 568.112 255.664 568.852Z" fill="#455A64"/>
<path opacity="0.2" d="M206.287 492.41C206.818 493.092 207.487 493.654 208.25 494.06C209.013 494.466 209.853 494.706 210.715 494.765C212.521 494.979 214.348 494.945 216.144 494.664C227.72 493.38 239.984 492.197 251.317 489.437C236.648 490.256 221.149 489.983 206.479 490.802L206.328 492.056" fill="black"/>
<g opacity="0.2">
<path d="M221.401 513.085L229.671 545.174L229.095 514.44L221.401 513.085Z" fill="black"/>
</g>
<path d="M338.102 309.337L332.895 311.197L330.661 304.393C326.556 291.846 313.474 285.184 301.453 289.42C289.432 293.656 283.032 307.416 287.137 319.963L289.371 326.767L284.145 328.637C282.151 329.41 280.533 330.921 279.625 332.857C278.718 334.793 278.591 337.003 279.272 339.03L293.759 383.302C294.06 384.305 294.559 385.238 295.228 386.044C295.896 386.851 296.719 387.515 297.649 387.997C298.579 388.479 299.596 388.769 300.641 388.85C301.685 388.931 302.735 388.801 303.728 388.468L357.685 369.168C359.705 368.396 361.346 366.872 362.264 364.914C363.183 362.957 363.306 360.72 362.609 358.674L348.111 314.402C347.802 313.402 347.295 312.474 346.62 311.673C345.945 310.873 345.116 310.217 344.182 309.744C343.248 309.272 342.228 308.992 341.183 308.922C340.139 308.852 339.091 308.993 338.102 309.337ZM296.974 316.414C295.867 313.152 296.066 309.588 297.529 306.468C298.991 303.349 301.604 300.917 304.82 299.682C306.408 299.138 308.089 298.921 309.763 299.041C311.436 299.162 313.069 299.618 314.563 300.383C316.056 301.149 317.38 302.207 318.456 303.495C319.532 304.783 320.337 306.275 320.824 307.881L323.048 314.685L299.198 323.218L296.974 316.414ZM327.304 355.702L331.005 367.005C331.073 367.231 331.051 367.475 330.943 367.686C330.836 367.897 330.652 368.059 330.428 368.137L325.242 369.987C325.036 370.044 324.815 370.019 324.627 369.918C324.438 369.816 324.296 369.645 324.231 369.441L320.5 358.189C318.443 358.077 316.47 357.339 314.843 356.074C313.217 354.809 312.016 353.078 311.401 351.112C310.522 348.512 310.682 345.674 311.849 343.19C313.015 340.706 315.098 338.77 317.659 337.787C318.924 337.354 320.263 337.181 321.597 337.278C322.93 337.374 324.23 337.738 325.42 338.347C326.609 338.957 327.664 339.799 328.521 340.825C329.378 341.851 330.02 343.039 330.408 344.318C331.059 346.315 331.113 348.459 330.563 350.486C330.014 352.513 328.885 354.336 327.315 355.732L327.304 355.702Z" fill="#63B3ED"/>
<path d="M332.663 311.076C332.663 311.217 323.008 314.847 310.997 319.164C298.986 323.481 289.189 326.949 289.139 326.848C289.088 326.746 298.794 323.087 310.815 318.76C322.836 314.432 332.612 310.944 332.663 311.076Z" fill="#263238"/>
<path d="M344.128 312.936C344.172 313.024 344.209 313.115 344.239 313.209C344.32 313.411 344.411 313.674 344.532 313.998C344.795 314.736 345.159 315.757 345.614 317.031L349.496 328.334C351.114 333.126 353.045 338.808 355.188 345.116C356.199 348.281 357.392 351.577 358.504 355.044C359.099 356.831 359.356 358.714 359.262 360.595C359.177 361.573 358.898 362.525 358.443 363.395C357.957 364.263 357.309 365.028 356.533 365.65C354.971 366.79 353.237 367.674 351.397 368.268L346.19 370.139L336.333 373.667L319.641 379.612L308.368 383.575L305.335 384.586L304.526 384.849C304.44 384.887 304.348 384.911 304.253 384.92C304.253 384.92 304.334 384.92 304.506 384.798L305.295 384.485L308.328 383.343L319.54 379.218L336.201 373.152L346.038 369.593L351.245 367.712C353.033 367.142 354.716 366.285 356.229 365.175C356.951 364.598 357.556 363.887 358.009 363.082C358.437 362.277 358.695 361.393 358.767 360.484C358.86 358.671 358.613 356.857 358.039 355.135C356.947 351.698 355.795 348.372 354.753 345.207C352.65 338.889 350.709 333.186 349.172 328.394C347.636 323.602 346.342 319.75 345.452 317.041C345.027 315.716 344.704 314.685 344.441 313.937L344.198 313.128C344.168 313.067 344.144 313.002 344.128 312.936Z" fill="#263238"/>
<path d="M315.658 298.994C315.658 298.994 315.122 298.731 314.131 298.327C312.719 297.784 311.225 297.484 309.713 297.437C307.471 297.36 305.241 297.782 303.182 298.671C300.678 299.778 298.537 301.568 297.005 303.837C295.462 306.099 294.634 308.772 294.629 311.511C294.65 313.755 294.99 315.984 295.64 318.133C296.165 319.973 296.711 321.439 297.075 322.46C297.29 322.978 297.466 323.512 297.601 324.057C297.314 323.572 297.073 323.061 296.883 322.53C296.469 321.519 295.872 320.084 295.286 318.234C294.566 316.063 294.174 313.797 294.123 311.511C294.096 308.669 294.943 305.888 296.55 303.544C298.135 301.192 300.364 299.346 302.969 298.226C305.093 297.332 307.393 296.938 309.693 297.073C311.238 297.152 312.755 297.512 314.171 298.135C314.55 298.31 314.915 298.512 315.263 298.742C315.407 298.805 315.54 298.89 315.658 298.994Z" fill="#263238"/>
<path d="M316.123 338.555C316.284 338.457 316.453 338.373 316.628 338.302C317.134 338.074 317.658 337.888 318.195 337.746C319.047 337.495 319.926 337.345 320.814 337.301C322.021 337.236 323.228 337.419 324.362 337.837C326.951 338.747 329.326 341.386 330.499 344.914C331.062 346.808 331.062 348.824 330.499 350.717C329.876 352.773 328.758 354.644 327.244 356.167L327.304 355.894C328.649 359.584 330.115 363.588 331.631 367.763L331.722 368.016L331.47 368.107L329.155 368.875L324.099 370.563L323.847 370.644L323.766 370.392C322.381 366.206 320.864 362.304 319.722 358.472L319.944 358.644C317.968 358.48 316.083 357.738 314.525 356.51C313.116 355.425 311.96 354.045 311.138 352.466C310.397 351.067 310.028 349.5 310.067 347.917C310.113 346.299 310.518 344.711 311.25 343.267C311.982 341.824 313.025 340.56 314.303 339.566C314.829 339.139 315.419 338.798 316.052 338.555C315.481 338.894 314.927 339.262 314.394 339.657C312.99 340.845 311.914 342.373 311.27 344.095C310.717 345.394 310.458 346.799 310.512 348.21C310.566 349.62 310.932 351.002 311.583 352.254C312.391 353.772 313.519 355.097 314.889 356.136C316.375 357.303 318.172 358.006 320.055 358.158H320.227L320.278 358.31C321.39 362.071 322.917 366.004 324.322 370.21L323.988 370.048L329.043 368.359L331.348 367.581L331.187 367.925C329.68 363.749 328.224 359.736 326.89 356.045V355.894L327.011 355.772C328.481 354.312 329.577 352.519 330.206 350.546C330.742 348.734 330.742 346.806 330.206 344.995C329.104 341.598 326.829 339.02 324.362 338.11C323.27 337.689 322.105 337.493 320.935 337.534C320.062 337.554 319.193 337.673 318.347 337.888C316.84 338.262 316.133 338.606 316.123 338.555Z" fill="#263238"/>
</g>
<defs>
<radialGradient id="paint0_radial_201_330" cx="0" cy="0" r="1" gradientUnits="userSpaceOnUse" gradientTransform="translate(401.818 387.895) rotate(89.8758) scale(241.126 235.654)">
<stop offset="0.0135415" stop-color="#BEE3F8"/>
<stop offset="0.0136415" stop-color="#2B6CB0"/>
<stop offset="1" stop-color="#2C5282" stop-opacity="0"/>
</radialGradient>
<clipPath id="clip0_201_330">
<rect width="610" height="643" fill="white" transform="translate(97 76)"/>
</clipPath>
</defs>
</svg>
