<svg width="719" height="641" viewBox="0 0 719 641" fill="none" xmlns="http://www.w3.org/2000/svg">
<rect width="719" height="641" fill="#E2E8F0"/>
<rect width="1440" height="800" transform="translate(-356 -118)" fill="white"/>
<g clip-path="url(#clip0_0_1)">
<path d="M759.27 336.326C765.83 520.482 734.959 658.163 381.637 670C4.00272 654.782 19.1188 647.531 4.00274 336.326C-12.2047 2.65186 4.00269 14.4882 381.637 2.65179C747.22 -8.80695 747.385 2.65186 759.27 336.326Z" fill="url(#paint0_radial_0_1)"/>
<path d="M395.428 487.909V461.818H309.019V487.909C309.005 496.407 305.769 504.654 299.835 511.316L296.052 515.553H408.395L404.612 511.316C398.677 504.654 395.442 496.407 395.428 487.909Z" fill="white" stroke="#2E353A" stroke-linecap="round" stroke-linejoin="round"/>
<path d="M303.705 506.18H400.742C397.258 500.588 395.43 494.301 395.428 487.909V461.818H309.019V487.909C309.017 494.301 307.189 500.588 303.705 506.18Z" fill="#4299E1"/>
<path d="M513.62 238.427H190.813C184.051 238.427 178.568 243.302 178.568 249.316V459.16C178.568 465.173 184.051 470.048 190.813 470.048H513.62C520.383 470.048 525.865 465.173 525.865 459.16V249.316C525.865 243.302 520.383 238.427 513.62 238.427Z" fill="#2E353A" stroke="#2E353A" stroke-linecap="round" stroke-linejoin="round"/>
<path d="M178.568 434.045H525.879V459.147C525.879 462.035 524.589 464.804 522.293 466.846C519.996 468.888 516.882 470.035 513.634 470.035H190.828C187.58 470.035 184.466 468.888 182.169 466.846C179.873 464.804 178.583 462.035 178.583 459.147V434.045H178.568Z" fill="white" stroke="#2E353A" stroke-linecap="round" stroke-linejoin="round"/>
<path d="M508.407 252.847H196.041V416.48H508.407V252.847Z" fill="white" stroke="#2E353A" stroke-linecap="round" stroke-linejoin="round"/>
<path d="M358.635 452.047C358.635 450.919 358.259 449.817 357.555 448.879C356.85 447.942 355.849 447.211 354.677 446.78C353.506 446.348 352.217 446.235 350.973 446.455C349.729 446.675 348.587 447.218 347.69 448.015C346.794 448.813 346.183 449.828 345.936 450.934C345.688 452.04 345.815 453.186 346.301 454.228C346.786 455.27 347.608 456.16 348.662 456.787C349.716 457.413 350.956 457.747 352.224 457.747C353.924 457.747 355.555 457.147 356.757 456.078C357.96 455.009 358.635 453.559 358.635 452.047Z" fill="#2E353A" stroke="#2E353A" stroke-linecap="round" stroke-linejoin="round"/>
<path d="M408.409 515.604H296.052V520.265H408.409V515.604Z" fill="white" stroke="#2E353A" stroke-linecap="round" stroke-linejoin="round"/>
<path d="M505.475 264.377H198.495V278.719H505.475V264.377Z" fill="white" stroke="#2E353A" stroke-linecap="round" stroke-linejoin="round"/>
<path d="M249.151 278.719L245.468 269.86H198.495V278.719V290.468V409.508H505.475V278.719H249.151Z" fill="#4299E1" stroke="#2E353A" stroke-linecap="round" stroke-linejoin="round"/>
<path d="M281.121 343.574H425.059" stroke="#2E353A" stroke-width="2" stroke-linecap="round" stroke-linejoin="round"/>
<path d="M281.121 356.157H425.059" stroke="#2E353A" stroke-width="2" stroke-linecap="round" stroke-linejoin="round"/>
<path d="M281.121 368.741H425.059" stroke="#2E353A" stroke-width="2" stroke-linecap="round" stroke-linejoin="round"/>
<path d="M281.121 381.337H425.059" stroke="#2E353A" stroke-width="2" stroke-linecap="round" stroke-linejoin="round"/>
<path d="M417.449 310.023H287.012C285.67 310.025 284.34 309.792 283.099 309.336C281.858 308.881 280.73 308.213 279.779 307.37C278.828 306.527 278.074 305.526 277.558 304.423C277.043 303.321 276.776 302.139 276.774 300.945C276.773 299.752 277.035 298.569 277.547 297.466C278.059 296.362 278.811 295.359 279.759 294.514C280.707 293.668 281.833 292.997 283.072 292.539C284.312 292.08 285.641 291.844 286.984 291.842H417.449C418.794 291.84 420.126 292.075 421.369 292.531C422.612 292.988 423.741 293.659 424.692 294.505C425.644 295.35 426.398 296.354 426.911 297.46C427.425 298.565 427.689 299.75 427.687 300.945C427.685 302.139 427.419 303.321 426.903 304.423C426.388 305.526 425.633 306.527 424.682 307.37C423.732 308.213 422.603 308.881 421.362 309.336C420.121 309.792 418.791 310.025 417.449 310.023Z" fill="white" stroke="#2E353A" stroke-linecap="round" stroke-linejoin="round"/>
<path d="M417.449 310.023H399.63V291.816H417.449C418.794 291.814 420.126 292.049 421.369 292.506C422.612 292.963 423.741 293.633 424.692 294.479C425.643 295.324 426.398 296.329 426.911 297.434C427.425 298.539 427.689 299.724 427.687 300.92C427.689 302.116 427.425 303.3 426.911 304.406C426.398 305.511 425.643 306.515 424.692 307.361C423.741 308.206 422.612 308.877 421.369 309.334C420.126 309.791 418.794 310.025 417.449 310.023Z" fill="#2E353A" stroke="#2E353A" stroke-linecap="round" stroke-linejoin="round"/>
<path d="M413.478 294.127C412.63 293.421 411.565 292.953 410.418 292.785C409.271 292.616 408.093 292.754 407.034 293.181C405.975 293.608 405.082 294.304 404.469 295.182C403.855 296.06 403.548 297.08 403.586 298.114C403.625 299.147 404.007 300.147 404.684 300.987C405.362 301.827 406.305 302.469 407.393 302.833C408.481 303.197 409.666 303.265 410.798 303.03C411.93 302.794 412.959 302.265 413.753 301.51C414.282 301.012 414.695 300.426 414.968 299.785C415.242 299.145 415.37 298.462 415.346 297.777C415.322 297.092 415.146 296.418 414.827 295.794C414.509 295.17 414.056 294.608 413.493 294.14L413.478 294.127ZM412.901 300.804C412.263 301.406 411.439 301.827 410.533 302.013C409.627 302.199 408.679 302.142 407.809 301.849C406.939 301.557 406.186 301.042 405.645 300.369C405.104 299.696 404.799 298.896 404.769 298.07C404.739 297.243 404.985 296.427 405.476 295.725C405.967 295.022 406.68 294.465 407.527 294.123C408.374 293.781 409.315 293.67 410.233 293.803C411.151 293.936 412.004 294.308 412.684 294.872C413.597 295.633 414.133 296.686 414.173 297.798C414.214 298.911 413.756 299.992 412.901 300.804Z" fill="white"/>
<path d="M417.897 303.411C417.767 303.299 417.605 303.222 417.428 303.191C417.251 303.159 417.068 303.173 416.9 303.231L414.778 301.459C414.67 301.365 414.524 301.312 414.373 301.312C414.222 301.312 414.077 301.365 413.969 301.459L413.781 301.639C413.678 301.738 413.62 301.869 413.62 302.005C413.62 302.14 413.678 302.271 413.781 302.371L415.875 304.117C415.813 304.276 415.803 304.447 415.847 304.611C415.89 304.775 415.985 304.924 416.12 305.041L419.73 308.187C419.968 308.397 420.29 308.515 420.626 308.515C420.961 308.515 421.283 308.397 421.521 308.187C421.757 307.976 421.89 307.689 421.89 307.391C421.89 307.093 421.757 306.807 421.521 306.595L417.897 303.411Z" fill="white"/>
<path d="M455.181 364.94C455.603 365.87 456.23 366.715 457.027 367.426C457.823 368.136 458.772 368.697 459.816 369.074C461.448 369.665 463.628 369.537 466.141 370.795C471.816 373.633 485.982 371.103 496.248 372.079C506.515 373.055 520.349 362.95 520.349 362.95L561.084 364.94V328.988C561.084 328.988 518.573 330.567 509.36 327.409C500.147 324.25 489.88 317.65 485.274 317.958C480.668 318.267 442.763 322.054 442.763 322.054L455.167 364.94H455.181Z" fill="white" stroke="#2E353A" stroke-linecap="round" stroke-linejoin="round"/>
<path d="M444.64 219.976C436.229 220.804 428.283 223.831 421.807 228.675C415.331 233.518 410.615 239.96 408.257 247.187C405.898 254.413 406.003 262.099 408.557 269.273C411.111 276.447 416 282.786 422.605 287.489C429.211 292.192 437.237 295.047 445.668 295.694C454.099 296.341 462.556 294.751 469.97 291.124C477.385 287.497 483.423 281.997 487.322 275.318C491.22 268.64 492.804 261.083 491.873 253.604C491.259 248.637 489.549 243.827 486.842 239.448C484.135 235.069 480.483 231.207 476.096 228.084C471.71 224.96 466.673 222.637 461.276 221.246C455.878 219.855 450.225 219.423 444.64 219.976ZM453.131 288.131C446.384 288.798 439.566 287.67 433.539 284.891C427.513 282.112 422.549 277.807 419.274 272.519C415.999 267.231 414.562 261.199 415.143 255.185C415.724 249.171 418.298 243.445 422.538 238.731C426.779 234.017 432.497 230.528 438.968 228.704C445.439 226.879 452.373 226.802 458.893 228.482C465.414 230.162 471.227 233.524 475.599 238.142C479.971 242.76 482.705 248.427 483.455 254.426C483.953 258.41 483.563 262.442 482.309 266.291C481.054 270.141 478.959 273.733 476.143 276.863C473.327 279.993 469.846 282.599 465.897 284.532C461.949 286.466 457.611 287.689 453.131 288.131Z" fill="white" stroke="#2E353A" stroke-linecap="round" stroke-linejoin="round"/>
<path d="M444.408 217.806C435.998 218.634 428.052 221.661 421.576 226.505C415.1 231.348 410.384 237.79 408.025 245.017C405.667 252.243 405.771 259.929 408.325 267.103C410.879 274.277 415.768 280.616 422.374 285.319C428.98 290.022 437.006 292.877 445.436 293.524C453.867 294.171 462.325 292.581 469.739 288.954C477.153 285.327 483.192 279.827 487.09 273.148C490.989 266.47 492.573 258.913 491.642 251.434C490.39 241.407 484.711 232.232 475.854 225.926C466.997 219.62 455.686 216.7 444.408 217.806ZM452.899 285.961C446.152 286.628 439.334 285.5 433.308 282.721C427.281 279.942 422.317 275.637 419.043 270.349C415.768 265.061 414.33 259.029 414.911 253.015C415.492 247.001 418.066 241.275 422.307 236.561C426.548 231.847 432.265 228.358 438.736 226.534C445.207 224.709 452.142 224.632 458.662 226.312C465.182 227.992 470.996 231.354 475.368 235.972C479.74 240.59 482.473 246.257 483.223 252.256C483.721 256.24 483.332 260.272 482.077 264.121C480.823 267.971 478.728 271.563 475.912 274.693C473.096 277.823 469.614 280.429 465.666 282.362C461.717 284.296 457.379 285.519 452.899 285.961Z" fill="white" stroke="#2E353A" stroke-linecap="round" stroke-linejoin="round"/>
<path d="M455.232 294.141L453.209 294.34C450.926 294.565 449.28 296.393 449.533 298.422L452.817 324.789C453.07 326.818 455.125 328.282 457.408 328.057L459.432 327.858C461.715 327.633 463.36 325.805 463.108 323.775L459.824 297.409C459.571 295.379 457.515 293.916 455.232 294.141Z" fill="#4299E1" stroke="#2E353A" stroke-linecap="round" stroke-linejoin="round"/>
<path d="M454.574 316.148L458.906 315.737C460.769 315.56 462.635 316.043 464.1 317.081C465.566 318.12 466.511 319.63 466.732 321.284L473.216 373.427C473.479 375.559 472.78 377.696 471.272 379.37C469.764 381.043 467.57 382.115 465.173 382.351H464.884C463.697 382.469 462.495 382.377 461.348 382.081C460.2 381.785 459.13 381.291 458.198 380.627C457.265 379.962 456.49 379.141 455.915 378.21C455.34 377.278 454.978 376.255 454.848 375.199L448.365 323.069C448.26 322.243 448.34 321.408 448.6 320.609C448.859 319.811 449.293 319.067 449.876 318.418C450.46 317.769 451.181 317.229 452 316.828C452.818 316.428 453.718 316.175 454.646 316.084L454.574 316.148Z" fill="#2E353A" stroke="#2E353A" stroke-linecap="round" stroke-linejoin="round"/>
<path d="M460.87 359.599C460.87 359.599 450.603 359.932 449.159 361.512C447.715 363.091 447.975 368.587 450.762 369.216C457.866 370.872 472.971 369.909 473.563 368.779C474.155 367.649 475.368 361.075 472.249 360.369C468.483 359.856 464.679 359.598 460.87 359.599Z" fill="white" stroke="#2E353A" stroke-linecap="round" stroke-linejoin="round"/>
<path d="M457.91 346.861C457.91 346.861 445.968 346.463 444.106 348.376C442.243 350.29 441.882 357.441 445.03 358.52C453.058 361.255 471.123 360.189 471.946 358.777C472.769 357.364 474.559 350.033 471.022 348.851C467.484 347.67 457.91 346.861 457.91 346.861Z" fill="white" stroke="#2E353A" stroke-linecap="round" stroke-linejoin="round"/>
<path d="M456.192 332.48C456.192 332.48 443.427 332.044 441.434 334.098C439.442 336.153 439.052 343.78 442.416 344.935C451.08 347.863 469.852 347.863 470.733 346.348C471.614 344.833 473.982 335.87 470.199 334.599C466.416 333.328 456.192 332.48 456.192 332.48Z" fill="white" stroke="#2E353A" stroke-linecap="round" stroke-linejoin="round"/>
<path d="M448.827 319.024C448.827 319.024 436.062 318.601 434.07 320.642C432.077 322.684 431.6 330.555 435.051 331.479C438.503 332.404 462.488 334.407 463.368 332.904C464.249 331.402 466.617 322.414 462.834 321.143C459.051 319.872 448.827 319.024 448.827 319.024Z" fill="white" stroke="#2E353A" stroke-linecap="round" stroke-linejoin="round"/>
<path d="M490.631 356.787C488.34 356.226 486.169 355.333 484.206 354.142C473.939 347.837 474.285 333.354 474.285 333.354L471.816 332.724C469.777 332.034 467.864 331.078 466.141 329.887C466.968 332.879 467.452 335.937 467.585 339.016C467.548 340.708 466.805 342.327 465.5 343.559C464.195 344.79 462.421 345.546 460.524 345.68C457.333 346.001 455.918 346.309 454.849 342.534C453.781 338.759 448.481 323.634 448.12 321.425C447.802 319.422 451.586 315.853 457.607 315.005C466.863 315.673 475.989 317.971 485.318 317.971C488.563 318.242 491.674 319.26 494.343 320.924" fill="white"/>
<path d="M490.631 356.787C488.34 356.226 486.169 355.333 484.206 354.142C473.939 347.837 474.285 333.354 474.285 333.354L471.816 332.724C469.777 332.034 467.864 331.078 466.141 329.887C466.968 332.879 467.452 335.937 467.585 339.016C467.548 340.708 466.805 342.327 465.5 343.559C464.195 344.79 462.421 345.546 460.524 345.68C457.333 346.001 455.918 346.309 454.849 342.534C453.781 338.759 448.481 323.634 448.12 321.425C447.802 319.422 451.586 315.853 457.607 315.005C466.863 315.673 475.989 317.971 485.318 317.971C488.563 318.242 491.674 319.26 494.343 320.924" stroke="#2E353A" stroke-linecap="round" stroke-linejoin="round"/>
<path d="M500.393 357.583C499.267 357.634 498.139 357.634 497.014 357.583H500.393Z" fill="white"/>
<path d="M500.393 357.583C499.267 357.634 498.139 357.634 497.014 357.583" stroke="#2E353A" stroke-linecap="round" stroke-linejoin="round"/>
<path d="M507.945 356.337C505.493 357.027 502.958 357.458 500.393 357.621L507.945 356.337Z" fill="white"/>
<path d="M507.945 356.337C505.493 357.027 502.958 357.458 500.393 357.621" stroke="#2E353A" stroke-linecap="round" stroke-linejoin="round"/>
<path d="M520.695 352.254H533.446" stroke="#2E353A" stroke-linecap="round" stroke-linejoin="round"/>
<path d="M521.764 355.4H527.078" stroke="#2E353A" stroke-linecap="round" stroke-linejoin="round"/>
<path d="M474.285 333.354C474.285 333.354 481.332 333.354 485.953 329.617" stroke="#2E353A" stroke-linecap="round" stroke-linejoin="round"/>
<path d="M465.982 329.476C465.779 327.766 465.377 326.079 464.783 324.443" stroke="#2E353A" stroke-linecap="round" stroke-linejoin="round"/>
<path d="M454.747 340.878C454.747 340.878 453.404 337.565 455.036 336.371C456.668 335.177 461 333.456 461.751 334.779C462.501 336.101 464.133 342.2 463.686 343.394L463.238 344.589" stroke="#2E353A" stroke-width="0.5" stroke-linecap="round" stroke-linejoin="round"/>
<path d="M650.482 381.054H528.392V327.691H650.482" fill="#4299E1"/>
<path d="M650.482 381.054H528.392V327.691H650.482" stroke="#2E353A" stroke-linecap="round" stroke-linejoin="round"/>
<path d="M537.344 377.485C538.859 377.485 540.088 376.392 540.088 375.045C540.088 373.698 538.859 372.605 537.344 372.605C535.829 372.605 534.601 373.698 534.601 375.045C534.601 376.392 535.829 377.485 537.344 377.485Z" fill="white" stroke="#2E353A" stroke-linecap="round" stroke-linejoin="round"/>
<path d="M343.314 276.87C344.36 276.495 345.31 275.937 346.109 275.229C346.908 274.521 347.538 273.678 347.964 272.749C348.628 271.298 348.469 269.372 349.898 267.125C353.075 262.092 350.245 249.496 351.342 240.353C352.44 231.211 341.061 218.936 341.061 218.936L343.271 182.715H302.839C302.839 182.715 304.6 220.516 301.062 228.695C297.525 236.874 290.088 246.029 290.435 250.125C290.781 254.221 295.07 287.9 295.07 287.9L343.242 276.87H343.314Z" fill="white" stroke="#2E353A" stroke-linecap="round" stroke-linejoin="round"/>
<path d="M180.387 286.218C181.312 293.698 184.711 300.766 190.153 306.528C195.596 312.29 202.837 316.488 210.963 318.59C219.088 320.693 227.733 320.605 235.802 318.339C243.872 316.073 251.004 311.73 256.298 305.859C261.592 299.988 264.809 292.853 265.542 285.357C266.275 277.86 264.492 270.339 260.417 263.744C256.343 257.148 250.161 251.775 242.652 248.305C235.144 244.834 226.646 243.421 218.235 244.244H218.134C206.874 245.37 196.576 250.422 189.5 258.291C182.423 266.16 179.146 276.203 180.387 286.218ZM256.919 278.655C257.672 284.657 256.405 290.722 253.281 296.084C250.156 301.446 245.314 305.863 239.366 308.778C233.419 311.693 226.632 312.974 219.866 312.459C213.099 311.944 206.656 309.657 201.351 305.886C196.047 302.116 192.119 297.031 190.064 291.275C188.009 285.519 187.919 279.351 189.807 273.55C191.694 267.749 195.474 262.576 200.668 258.686C205.862 254.795 212.236 252.361 218.986 251.691C228.037 250.797 237.116 253.135 244.23 258.191C251.343 263.247 255.907 270.608 256.919 278.655Z" fill="white" stroke="#2E353A" stroke-linecap="round" stroke-linejoin="round"/>
<path d="M177.889 286.449C178.823 293.924 182.227 300.985 187.673 306.74C193.119 312.494 200.362 316.684 208.485 318.779C216.609 320.874 225.248 320.78 233.312 318.51C241.375 316.239 248.501 311.894 253.787 306.023C259.073 300.152 262.284 293.019 263.012 285.526C263.74 278.033 261.953 270.516 257.877 263.926C253.802 257.336 247.62 251.968 240.114 248.501C232.608 245.034 224.115 243.625 215.708 244.45C210.122 244.998 204.713 246.519 199.789 248.927C194.866 251.334 190.524 254.581 187.011 258.481C183.499 262.382 180.886 266.859 179.321 271.658C177.756 276.457 177.269 281.483 177.889 286.449ZM254.537 278.912C255.286 284.912 254.018 290.974 250.893 296.333C247.768 301.691 242.926 306.106 236.979 309.017C231.033 311.929 224.249 313.207 217.485 312.691C210.721 312.174 204.282 309.886 198.981 306.115C193.68 302.344 189.755 297.26 187.704 291.506C185.652 285.752 185.566 279.586 187.455 273.788C189.344 267.99 193.125 262.82 198.318 258.933C203.511 255.046 209.885 252.615 216.632 251.948C221.112 251.505 225.646 251.852 229.975 252.967C234.305 254.083 238.345 255.946 241.865 258.449C245.384 260.953 248.315 264.049 250.489 267.56C252.664 271.071 254.039 274.928 254.537 278.912Z" fill="white" stroke="#2E353A" stroke-linecap="round" stroke-linejoin="round"/>
<path d="M297.073 269.842L267.422 272.762C265.139 272.987 263.493 274.814 263.746 276.844L263.97 278.644C264.223 280.674 266.278 282.137 268.561 281.912L298.213 278.992C300.496 278.767 302.141 276.939 301.889 274.909L301.665 273.11C301.412 271.08 299.356 269.617 297.073 269.842Z" fill="#4299E1" stroke="#2E353A" stroke-linecap="round" stroke-linejoin="round"/>
<path d="M288.485 277.423L288.009 273.571C287.802 271.902 288.349 270.229 289.53 268.919C290.71 267.609 292.428 266.77 294.304 266.586L352.931 260.82C354.123 260.697 355.331 260.785 356.485 261.078C357.64 261.371 358.717 261.864 359.656 262.528C360.596 263.193 361.378 264.016 361.959 264.95C362.539 265.885 362.906 266.912 363.039 267.972V268.229C363.177 269.289 363.079 270.363 362.75 271.39C362.42 272.416 361.865 273.374 361.118 274.209C360.371 275.045 359.445 275.74 358.394 276.256C357.344 276.773 356.189 277.099 354.996 277.217L296.369 282.982C294.496 283.17 292.614 282.691 291.137 281.649C289.66 280.607 288.706 279.088 288.485 277.423Z" fill="#2E353A" stroke="#2E353A" stroke-linecap="round" stroke-linejoin="round"/>
<path d="M337.336 271.824C337.336 271.824 337.726 280.941 339.487 282.225C341.249 283.509 347.458 283.278 348.151 280.8C350.029 274.495 348.931 261.052 347.661 260.538C346.39 260.024 338.997 258.92 338.217 261.706C337.635 265.054 337.34 268.437 337.336 271.824Z" fill="white" stroke="#2E353A" stroke-linecap="round" stroke-linejoin="round"/>
<path d="M323.026 274.444C323.026 274.444 322.564 285.062 324.716 286.719C326.867 288.375 334.91 288.709 336.123 285.897C339.213 278.758 338 262.695 336.412 261.976C334.824 261.257 326.578 259.652 325.25 262.798C323.921 265.944 323.026 274.444 323.026 274.444Z" fill="white" stroke="#2E353A" stroke-linecap="round" stroke-linejoin="round"/>
<path d="M306.854 275.997C306.854 275.997 306.363 287.348 308.659 289.12C310.955 290.892 319.561 291.238 320.86 288.234C324.153 280.607 324.153 263.838 322.449 263.067C320.745 262.297 310.651 260.178 309.236 263.542C307.821 266.907 306.854 275.997 306.854 275.997Z" fill="white" stroke="#2E353A" stroke-linecap="round" stroke-linejoin="round"/>
<path d="M291.72 282.533C291.72 282.533 291.229 293.883 293.54 295.655C295.85 297.427 304.688 297.851 305.727 294.769C306.767 291.688 309.02 270.373 307.316 269.59C305.612 268.807 295.533 266.714 294.103 270.078C292.673 273.442 291.72 282.533 291.72 282.533Z" fill="white" stroke="#2E353A" stroke-linecap="round" stroke-linejoin="round"/>
<path d="M335.069 236.643C335.657 241.7 334.293 246.786 331.199 251.062C324.123 260.204 307.821 259.883 307.821 259.883L307.113 262.092C306.343 263.904 305.267 265.601 303.922 267.125C307.291 266.39 310.736 265.959 314.203 265.841C316.099 265.89 317.908 266.561 319.281 267.725C320.654 268.889 321.494 270.463 321.64 272.145C322.001 274.983 322.347 276.241 318.102 277.179C313.857 278.116 296.846 282.854 294.363 283.175C292.11 283.457 288.096 280.093 287.143 274.739C287.908 266.509 290.493 258.381 290.493 250.099C290.795 247.209 291.94 244.438 293.814 242.061" fill="white"/>
<path d="M335.069 236.643C335.657 241.7 334.293 246.786 331.199 251.062C324.123 260.204 307.821 259.883 307.821 259.883L307.113 262.092C306.343 263.904 305.267 265.601 303.922 267.125C307.291 266.39 310.736 265.959 314.203 265.841C316.099 265.89 317.908 266.561 319.281 267.725C320.654 268.889 321.494 270.463 321.64 272.145C322.001 274.983 322.347 276.241 318.102 277.179C313.857 278.116 296.846 282.854 294.363 283.175C292.11 283.457 288.096 280.093 287.143 274.739C287.908 266.509 290.493 258.381 290.493 250.099C290.795 247.209 291.94 244.438 293.814 242.061" stroke="#2E353A" stroke-linecap="round" stroke-linejoin="round"/>
<path d="M333.683 229.966C334.11 231.167 334.438 232.394 334.665 233.638L333.683 229.966Z" fill="white"/>
<path d="M333.683 229.966C334.11 231.167 334.438 232.394 334.665 233.638" stroke="#2E353A" stroke-linecap="round" stroke-linejoin="round"/>
<path d="M329.076 218.615V207.278" stroke="#2E353A" stroke-linecap="round" stroke-linejoin="round"/>
<path d="M332.614 217.678V212.953" stroke="#2E353A" stroke-linecap="round" stroke-linejoin="round"/>
<path d="M307.82 259.883C307.82 259.883 307.82 253.617 303.618 249.508" stroke="#2E353A" stroke-linecap="round" stroke-linejoin="round"/>
<path d="M303.474 267.279C301.551 267.455 299.654 267.808 297.813 268.332" stroke="#2E353A" stroke-linecap="round" stroke-linejoin="round"/>
<path d="M316.297 277.217C316.297 277.217 312.572 278.411 311.229 276.948C309.886 275.484 307.951 271.645 309.438 270.99C310.925 270.335 317.784 268.871 319.127 269.269L320.47 269.654" stroke="#2E353A" stroke-width="0.5" stroke-linecap="round" stroke-linejoin="round"/>
<path d="M361.48 103.209V211.772H301.453V103.209" fill="#4299E1"/>
<path d="M361.48 103.209V211.772H301.453V103.209" stroke="#2E353A" stroke-linecap="round" stroke-linejoin="round"/>
<path d="M354.707 206.25C356.223 206.25 357.451 205.158 357.451 203.811C357.451 202.463 356.223 201.371 354.707 201.371C353.192 201.371 351.964 202.463 351.964 203.811C351.964 205.158 353.192 206.25 354.707 206.25Z" fill="white" stroke="#2E353A" stroke-linecap="round" stroke-linejoin="round"/>
<path d="M282.911 470.228C282.492 471.159 281.865 472.005 281.068 472.716C280.272 473.426 279.322 473.986 278.276 474.362C276.644 474.966 274.478 474.825 271.951 476.083C266.291 478.921 252.125 476.404 241.844 477.367C231.563 478.33 217.758 468.238 217.758 468.238L176.979 470.228V434.276C176.979 434.276 219.491 435.855 228.704 432.71C237.916 429.564 248.183 422.938 252.789 423.259C257.396 423.58 295.301 427.355 295.301 427.355L282.911 470.228Z" fill="white" stroke="#2E353A" stroke-linecap="round" stroke-linejoin="round"/>
<path d="M293.381 325.342C301.792 326.169 309.738 329.196 316.214 334.04C322.69 338.883 327.405 345.325 329.764 352.552C332.122 359.778 332.018 367.464 329.464 374.638C326.91 381.812 322.021 388.151 315.415 392.854C308.809 397.557 300.784 400.412 292.353 401.059C283.922 401.707 275.465 400.116 268.05 396.489C260.636 392.862 254.598 387.362 250.699 380.683C246.8 374.005 245.216 366.448 246.148 358.969C247.396 348.944 253.072 339.77 261.927 333.466C270.783 327.162 282.092 324.244 293.366 325.354L293.381 325.342ZM284.89 393.496C291.64 394.165 298.461 393.039 304.49 390.261C310.52 387.483 315.488 383.177 318.766 377.888C322.044 372.599 323.485 366.565 322.906 360.548C322.327 354.531 319.755 348.802 315.514 344.085C311.274 339.368 305.556 335.875 299.083 334.048C292.61 332.221 285.673 332.142 279.149 333.82C272.625 335.498 266.808 338.859 262.432 343.477C258.056 348.096 255.319 353.764 254.566 359.766C253.56 367.814 256.189 375.887 261.876 382.212C267.562 388.538 275.84 392.596 284.89 393.496Z" fill="white" stroke="#2E353A" stroke-linecap="round" stroke-linejoin="round"/>
<path d="M293.64 323.172C302.047 324.002 309.989 327.03 316.46 331.873C322.932 336.717 327.643 343.157 329.999 350.381C332.354 357.605 332.247 365.288 329.692 372.458C327.138 379.628 322.249 385.964 315.645 390.664C309.041 395.364 301.018 398.217 292.591 398.863C284.163 399.509 275.71 397.918 268.299 394.292C260.888 390.666 254.853 385.167 250.956 378.492C247.06 371.816 245.476 364.262 246.407 356.787C247.025 351.821 248.738 347.013 251.446 342.636C254.154 338.259 257.806 334.4 262.192 331.278C266.579 328.157 271.613 325.834 277.009 324.443C282.405 323.052 288.057 322.62 293.64 323.172ZM285.15 391.326C291.899 391.995 298.72 390.869 304.75 388.091C310.78 385.313 315.748 381.007 319.026 375.718C322.304 370.429 323.745 364.395 323.166 358.378C322.587 352.361 320.015 346.632 315.774 341.915C311.534 337.198 305.815 333.705 299.342 331.878C292.869 330.051 285.932 329.972 279.409 331.65C272.885 333.328 267.067 336.689 262.692 341.307C258.316 345.926 255.579 351.594 254.826 357.596C253.824 365.64 256.456 373.709 262.142 380.029C267.828 386.349 276.103 390.404 285.15 391.301V391.326Z" fill="white" stroke="#2E353A" stroke-linecap="round" stroke-linejoin="round"/>
<path d="M278.215 402.775L274.931 429.141C274.679 431.171 276.324 432.999 278.607 433.224L280.631 433.423C282.914 433.648 284.969 432.185 285.222 430.155L288.506 403.789C288.759 401.759 287.113 399.931 284.83 399.706L282.807 399.507C280.524 399.282 278.468 400.745 278.215 402.775Z" fill="#4299E1" stroke="#2E353A" stroke-linecap="round" stroke-linejoin="round"/>
<path d="M273.193 487.768H272.904C271.711 487.651 270.555 487.326 269.503 486.81C268.452 486.294 267.525 485.599 266.777 484.763C266.03 483.928 265.475 482.969 265.147 481.942C264.818 480.915 264.721 479.84 264.861 478.779L271.345 426.649C271.446 425.822 271.729 425.021 272.178 424.292C272.628 423.563 273.235 422.919 273.965 422.399C274.695 421.879 275.533 421.492 276.431 421.261C277.33 421.029 278.271 420.958 279.2 421.051L283.532 421.475C285.409 421.659 287.126 422.498 288.307 423.808C289.488 425.118 290.035 426.791 289.828 428.46L283.345 480.654C283.21 481.714 282.842 482.74 282.261 483.674C281.68 484.607 280.897 485.43 279.958 486.094C279.02 486.758 277.943 487.251 276.789 487.545C275.636 487.839 274.429 487.928 273.237 487.806L273.193 487.768Z" fill="#2E353A" stroke="#2E353A" stroke-linecap="round" stroke-linejoin="round"/>
<path d="M277.136 464.951C277.136 464.951 287.388 465.297 288.832 466.864C290.276 468.43 290.016 473.939 287.229 474.568C280.139 476.237 265.02 475.261 264.443 474.131C263.865 473.001 262.623 466.427 265.757 465.721C269.522 465.208 273.326 464.951 277.136 464.951Z" fill="white" stroke="#2E353A" stroke-linecap="round" stroke-linejoin="round"/>
<path d="M280.14 452.252C280.14 452.252 292.082 451.841 293.944 453.754C295.807 455.668 296.182 462.819 293.02 463.898C284.991 466.633 266.927 465.567 266.118 464.155C265.31 462.742 263.505 455.411 267.043 454.229C270.58 453.048 280.14 452.252 280.14 452.252Z" fill="white" stroke="#2E353A" stroke-linecap="round" stroke-linejoin="round"/>
<path d="M281.886 437.833C281.886 437.833 294.651 437.409 296.644 439.451C298.637 441.492 299.027 449.145 295.662 450.288C286.998 453.228 268.226 453.215 267.345 451.713C266.465 450.21 264.096 441.223 267.88 439.951C271.663 438.68 281.886 437.833 281.886 437.833Z" fill="white" stroke="#2E353A" stroke-linecap="round" stroke-linejoin="round"/>
<path d="M289.237 424.389C289.237 424.389 302.002 423.953 303.994 425.994C305.987 428.036 306.463 435.92 302.998 436.844C299.532 437.769 275.562 439.759 274.681 438.256C273.8 436.754 271.446 427.766 275.23 426.508C279.013 425.25 289.237 424.389 289.237 424.389Z" fill="white" stroke="#2E353A" stroke-linecap="round" stroke-linejoin="round"/>
<path d="M239.592 462.999C244.628 463.175 249.6 461.95 253.815 459.494C264.096 453.189 263.735 438.706 263.735 438.706L266.219 438.077C268.257 437.392 270.166 436.435 271.88 435.239C271.053 438.231 270.569 441.29 270.436 444.368C270.49 446.056 271.245 447.666 272.553 448.889C273.862 450.112 275.633 450.861 277.526 450.994C280.717 451.302 282.132 451.623 283.201 447.835C284.269 444.047 289.569 428.935 289.93 426.739C290.291 424.543 286.464 421.154 280.443 420.319C271.187 420.999 262.046 423.298 252.732 423.298C249.484 423.567 246.37 424.58 243.693 426.238" fill="white"/>
<path d="M239.592 462.999C244.628 463.175 249.6 461.95 253.815 459.494C264.096 453.189 263.735 438.706 263.735 438.706L266.219 438.077C268.257 437.392 270.166 436.435 271.88 435.239C271.053 438.231 270.569 441.29 270.436 444.368C270.49 446.056 271.245 447.666 272.553 448.889C273.862 450.112 275.633 450.861 277.526 450.994C280.717 451.302 282.132 451.623 283.201 447.835C284.269 444.047 289.569 428.935 289.93 426.739C290.291 424.543 286.464 421.154 280.443 420.319C271.187 420.999 262.046 423.298 252.732 423.298C249.484 423.567 246.37 424.58 243.693 426.238" stroke="#2E353A" stroke-linecap="round" stroke-linejoin="round"/>
<path d="M230.119 461.702C232.138 462.254 234.213 462.628 236.314 462.819L230.119 461.702Z" fill="white"/>
<path d="M230.119 461.702C232.138 462.254 234.213 462.628 236.314 462.819" stroke="#2E353A" stroke-linecap="round" stroke-linejoin="round"/>
<path d="M217.354 457.606H204.604" stroke="#2E353A" stroke-linecap="round" stroke-linejoin="round"/>
<path d="M216.3 460.752H210.986" stroke="#2E353A" stroke-linecap="round" stroke-linejoin="round"/>
<path d="M263.764 438.706C263.764 438.706 256.717 438.706 252.097 434.969" stroke="#2E353A" stroke-linecap="round" stroke-linejoin="round"/>
<path d="M272.082 434.828C272.28 433.119 272.677 431.432 273.266 429.795" stroke="#2E353A" stroke-linecap="round" stroke-linejoin="round"/>
<path d="M283.258 446.23C283.258 446.23 284.601 442.917 282.955 441.723C281.309 440.529 276.991 438.809 276.255 440.131C275.519 441.454 273.872 447.565 274.32 448.747L274.768 449.941" stroke="#2E353A" stroke-width="0.5" stroke-linecap="round" stroke-linejoin="round"/>
<path d="M87.5674 486.419H209.658V433.043H87.5674" fill="#4299E1"/>
<path d="M87.5674 486.419H209.658V433.043H87.5674" stroke="#2E353A" stroke-linecap="round" stroke-linejoin="round"/>
<path d="M197.961 480.397C197.961 480.88 198.122 481.352 198.423 481.753C198.725 482.154 199.153 482.467 199.655 482.651C200.156 482.836 200.708 482.884 201.24 482.79C201.772 482.696 202.261 482.464 202.645 482.122C203.028 481.781 203.29 481.347 203.395 480.873C203.501 480.4 203.447 479.91 203.239 479.464C203.032 479.018 202.68 478.637 202.229 478.369C201.778 478.101 201.247 477.958 200.705 477.958C199.977 477.958 199.279 478.215 198.765 478.672C198.25 479.13 197.961 479.75 197.961 480.397Z" fill="white" stroke="#2E353A" stroke-linecap="round" stroke-linejoin="round"/>
</g>
<defs>
<radialGradient id="paint0_radial_0_1" cx="0" cy="0" r="1" gradientUnits="userSpaceOnUse" gradientTransform="translate(381.637 336.326) rotate(90) scale(333.674 377.634)">
<stop stop-color="#63B3ED" stop-opacity="0.64"/>
<stop offset="0.7375" stop-color="#BEE3F8" stop-opacity="0"/>
</radialGradient>
<clipPath id="clip0_0_1">
<rect x="-3" y="-1" width="722" height="642" rx="8" fill="white"/>
</clipPath>
</defs>
</svg>
